<?xml version="1.0" encoding="UTF-8" standalone="no"?>
<svg
   xmlns:dc="http://purl.org/dc/elements/1.1/"
   xmlns:cc="http://creativecommons.org/ns#"
   xmlns:rdf="http://www.w3.org/1999/02/22-rdf-syntax-ns#"
   xmlns:svg="http://www.w3.org/2000/svg"
   xmlns="http://www.w3.org/2000/svg"
   xmlns:xlink="http://www.w3.org/1999/xlink"
   xmlns:sodipodi="http://sodipodi.sourceforge.net/DTD/sodipodi-0.dtd"
   xmlns:inkscape="http://www.inkscape.org/namespaces/inkscape"
   width="200"
   height="102"
   viewBox="0 0 52.916665 26.987501"
   version="1.1"
   id="svg8"
   inkscape:version="1.0 (4035a4f, 2020-05-01)"
   sodipodi:docname="synod-im-logo-text.svg">
  <defs
     id="defs2">
    <rect
       x="22.678572"
       y="21.166668"
       width="45.047222"
       height="12.33056"
       id="rect835" />
    <clipPath
       clipPathUnits="userSpaceOnUse"
       id="clipPath891">
      <use
         height="100%"
         width="100%"
         x="0"
         y="0"
         xlink:href="#g887"
         id="use893" />
    </clipPath>
  </defs>
  <sodipodi:namedview
     id="base"
     pagecolor="#ffffff"
     bordercolor="#666666"
     borderopacity="1.0"
     inkscape:pageopacity="0.0"
     inkscape:pageshadow="2"
     inkscape:zoom="1.2432572"
     inkscape:cx="2.7263587"
     inkscape:cy="232.38337"
     inkscape:document-units="px"
     inkscape:current-layer="layer1"
     inkscape:document-rotation="0"
     showgrid="false"
     units="px"
     inkscape:window-width="1248"
     inkscape:window-height="1035"
     inkscape:window-x="0"
     inkscape:window-y="23"
     inkscape:window-maximized="0" />
  <metadata
     id="metadata5">
    <rdf:RDF>
      <cc:Work
         rdf:about="">
        <dc:format>image/svg+xml</dc:format>
        <dc:type
           rdf:resource="http://purl.org/dc/dcmitype/StillImage" />
        <dc:title></dc:title>
      </cc:Work>
    </rdf:RDF>
  </metadata>
  <g
     inkscape:label="Ebene 1"
     inkscape:groupmode="layer"
     id="layer1">
    <g
       transform="matrix(0.68794934,0,0,0.68794934,7.9546358,19.173725)"
       id="g889"
       clip-path="url(#clipPath891)">
      <g
         inkscape:label="Clip"
         id="g887">
        <g
           aria-label="Synod.im"
           transform="translate(-16.807828,-21.797652)"
           id="text833"
           style="font-style:normal;font-variant:normal;font-weight:500;font-stretch:normal;font-size:10.5833px;line-height:1.25;font-family:Lato;-inkscape-font-specification:'Lato Medium';white-space:pre;shape-inside:url(#rect835);fill:#ffffff;fill-opacity:1">
          <path
             d="m 27.546052,24.647921 q -0.05292,0.08996 -0.111124,0.132291 -0.05821,0.04233 -0.148167,0.04233 -0.09525,0 -0.216957,-0.08467 -0.121708,-0.08996 -0.306916,-0.195791 -0.179916,-0.111124 -0.433915,-0.195791 -0.253999,-0.08996 -0.60854,-0.08996 -0.333374,0 -0.587373,0.08996 -0.248708,0.08467 -0.41804,0.238124 -0.169333,0.148167 -0.259291,0.354541 -0.08467,0.201083 -0.08467,0.439207 0,0.306916 0.153458,0.507998 0.15875,0.201083 0.412749,0.343958 0.253999,0.142874 0.57679,0.248707 0.32279,0.105833 0.661456,0.222249 0.338665,0.111125 0.661456,0.259291 0.322791,0.148166 0.57679,0.375707 0.253999,0.22225 0.407457,0.550332 0.158749,0.322791 0.158749,0.793747 0,0.502707 -0.174624,0.941914 -0.169333,0.439207 -0.497415,0.767289 -0.328082,0.328083 -0.809622,0.518582 -0.476249,0.185208 -1.084789,0.185208 -0.365124,0 -0.709081,-0.07408 -0.343957,-0.06879 -0.650873,-0.195791 -0.306915,-0.132292 -0.57679,-0.312208 -0.264582,-0.185208 -0.476248,-0.412748 l 0.322791,-0.539749 q 0.04763,-0.0635 0.111124,-0.105833 0.06879,-0.04233 0.153458,-0.04233 0.111125,0 0.253999,0.116416 0.148167,0.116417 0.359833,0.259291 0.216957,0.137583 0.51329,0.253999 0.301624,0.116417 0.730247,0.116417 0.349249,0 0.624415,-0.08996 0.275166,-0.09525 0.460373,-0.264583 0.1905,-0.174624 0.291041,-0.41804 0.100542,-0.243416 0.100542,-0.539748 0,-0.333374 -0.153458,-0.54504 -0.153458,-0.211666 -0.407457,-0.354541 -0.254,-0.142875 -0.57679,-0.243416 -0.322791,-0.100541 -0.661456,-0.206374 -0.338666,-0.111125 -0.661457,-0.253999 -0.32279,-0.142875 -0.576789,-0.370416 -0.254,-0.232832 -0.407458,-0.57679 -0.153457,-0.349249 -0.153457,-0.857247 0,-0.407457 0.158749,-0.788456 0.15875,-0.380999 0.460374,-0.672039 0.306915,-0.296333 0.751414,-0.470957 0.444499,-0.179916 1.015997,-0.179916 0.640289,0 1.174746,0.206374 0.539748,0.201083 0.936622,0.582082 z"
             style="font-style:normal;font-variant:normal;font-weight:500;font-stretch:normal;font-size:10.5833px;line-height:1.25;font-family:Lato;-inkscape-font-specification:'Lato Medium';white-space:pre;shape-inside:url(#rect835);fill:#ffffff;fill-opacity:1"
             id="path895" />
          <path
             d="m 33.60003,25.632168 -2.98449,6.937353 q -0.04763,0.116416 -0.127,0.179916 -0.07937,0.0635 -0.232832,0.0635 h -0.76729 l 0.984247,-2.143118 -2.206618,-5.037651 h 0.899581 q 0.132291,0 0.206374,0.0635 0.07408,0.0635 0.105833,0.142874 l 1.365246,3.227907 q 0.04233,0.121708 0.07937,0.248707 0.04233,0.121708 0.06879,0.243416 0.03704,-0.126999 0.07937,-0.248707 0.04233,-0.127 0.08996,-0.248708 l 1.317621,-3.222615 q 0.03704,-0.08996 0.116416,-0.148166 0.07937,-0.05821 0.179916,-0.05821 z"
             style="font-style:normal;font-variant:normal;font-weight:500;font-stretch:normal;font-size:10.5833px;line-height:1.25;font-family:Lato;-inkscape-font-specification:'Lato Medium';white-space:pre;shape-inside:url(#rect835);fill:#ffffff;fill-opacity:1"
             id="path897" />
          <path
             d="m 35.347102,26.378291 q 0.174625,-0.185208 0.365124,-0.338666 0.190499,-0.153458 0.402165,-0.259291 0.216958,-0.111124 0.460374,-0.169333 0.248708,-0.0635 0.529165,-0.0635 0.444499,0 0.777872,0.148166 0.338666,0.148166 0.566207,0.41804 0.227541,0.264583 0.343957,0.64029 0.116417,0.375707 0.116417,0.830789 v 3.423697 h -1.037164 v -3.423697 q 0,-0.57679 -0.264582,-0.894289 -0.264583,-0.322791 -0.809623,-0.322791 -0.396873,0 -0.746122,0.1905 -0.343958,0.185208 -0.64029,0.507998 v 3.942279 H 34.37873 v -5.376316 h 0.619123 q 0.216958,0 0.269874,0.206374 z"
             style="font-style:normal;font-variant:normal;font-weight:500;font-stretch:normal;font-size:10.5833px;line-height:1.25;font-family:Lato;-inkscape-font-specification:'Lato Medium';white-space:pre;shape-inside:url(#rect835);fill:#ffffff;fill-opacity:1"
             id="path899" />
          <path
             d="m 42.581779,25.547502 q 0.592665,0 1.068913,0.195791 0.48154,0.190499 0.814914,0.555623 0.338666,0.359832 0.518582,0.873122 0.179916,0.507999 0.179916,1.142997 0,0.634998 -0.179916,1.148288 -0.179916,0.51329 -0.518582,0.873122 -0.333374,0.359832 -0.814914,0.555623 -0.476248,0.190499 -1.068913,0.190499 -0.597957,0 -1.079497,-0.190499 -0.476248,-0.195791 -0.814914,-0.555623 -0.338665,-0.359832 -0.523873,-0.873122 -0.179916,-0.51329 -0.179916,-1.148288 0,-0.634998 0.179916,-1.142997 0.185208,-0.51329 0.523873,-0.873122 0.338666,-0.365124 0.814914,-0.555623 0.48154,-0.195791 1.079497,-0.195791 z m 0,4.730735 q 0.761997,0 1.137705,-0.51329 0.375707,-0.51329 0.375707,-1.444621 0,-0.93133 -0.375707,-1.44462 -0.375708,-0.518582 -1.137705,-0.518582 -0.772581,0 -1.15358,0.518582 -0.375707,0.51329 -0.375707,1.44462 0,0.931331 0.375707,1.444621 0.380999,0.51329 1.15358,0.51329 z"
             style="font-style:normal;font-variant:normal;font-weight:500;font-stretch:normal;font-size:10.5833px;line-height:1.25;font-family:Lato;-inkscape-font-specification:'Lato Medium';white-space:pre;shape-inside:url(#rect835);fill:#ffffff;fill-opacity:1"
             id="path901" />
          <path
             d="m 49.771643,26.933914 q -0.253999,-0.333374 -0.550332,-0.465665 -0.291041,-0.132292 -0.656164,-0.132292 -0.709082,0 -1.100664,0.513291 -0.38629,0.507998 -0.38629,1.486953 0,0.51329 0.08467,0.878414 0.08996,0.359832 0.254,0.592665 0.169332,0.227541 0.412748,0.338665 0.243416,0.105833 0.550332,0.105833 0.44979,0 0.777872,-0.201082 0.328083,-0.201083 0.613832,-0.566207 z m 1.037163,-3.735905 v 7.810475 h -0.624415 q -0.216957,0 -0.269874,-0.206374 l -0.08996,-0.619123 q -0.343957,0.407457 -0.783164,0.656164 -0.433915,0.243416 -1.005413,0.243416 -0.460374,0 -0.836081,-0.179916 -0.370416,-0.179916 -0.634998,-0.523873 -0.264583,-0.349249 -0.407457,-0.862539 -0.142875,-0.51329 -0.142875,-1.180038 0,-0.597956 0.15875,-1.111246 0.158749,-0.51329 0.460373,-0.888998 0.301624,-0.375707 0.730248,-0.587373 0.428624,-0.216957 0.968372,-0.216957 0.486832,0 0.825497,0.158749 0.343958,0.15875 0.613832,0.44979 v -2.942157 z"
             style="font-style:normal;font-variant:normal;font-weight:500;font-stretch:normal;font-size:10.5833px;line-height:1.25;font-family:Lato;-inkscape-font-specification:'Lato Medium';white-space:pre;shape-inside:url(#rect835);fill:#ffffff;fill-opacity:1"
             id="path903" />
          <path
             d="m 52.089385,30.389361 q 0,-0.142874 0.05292,-0.269874 0.05292,-0.126999 0.142874,-0.222249 0.09525,-0.09525 0.22225,-0.148166 0.126999,-0.05821 0.275165,-0.05821 0.142875,0 0.269874,0.05821 0.127,0.05292 0.22225,0.148166 0.09525,0.09525 0.148166,0.222249 0.05821,0.127 0.05821,0.269874 0,0.148166 -0.05821,0.275166 -0.05292,0.127 -0.148166,0.222249 -0.09525,0.09525 -0.22225,0.148167 -0.126999,0.05292 -0.269874,0.05292 -0.148166,0 -0.275165,-0.05292 -0.127,-0.05292 -0.22225,-0.148167 -0.08996,-0.09525 -0.142874,-0.222249 -0.05292,-0.127 -0.05292,-0.275166 z"
             style="font-style:normal;font-variant:normal;font-weight:500;font-stretch:normal;font-size:10.5833px;line-height:1.25;font-family:Lato;-inkscape-font-specification:'Lato Medium';white-space:pre;shape-inside:url(#rect835);fill:#ffffff;fill-opacity:1"
             id="path905" />
          <path
             d="m 55.839346,25.632168 v 5.376316 h -1.031872 v -5.376316 z m 0.195791,-1.661578 q 0,0.142875 -0.05821,0.275166 -0.05821,0.126999 -0.15875,0.227541 -0.09525,0.09525 -0.227541,0.153458 -0.132291,0.05292 -0.275166,0.05292 -0.142874,0 -0.269874,-0.05292 -0.126999,-0.05821 -0.227541,-0.153458 -0.09525,-0.100542 -0.153458,-0.227541 -0.05292,-0.132291 -0.05292,-0.275166 0,-0.148166 0.05292,-0.275166 0.05821,-0.132291 0.153458,-0.227541 0.100542,-0.100541 0.227541,-0.153458 0.127,-0.05821 0.269874,-0.05821 0.142875,0 0.275166,0.05821 0.132291,0.05292 0.227541,0.153458 0.100541,0.09525 0.15875,0.227541 0.05821,0.127 0.05821,0.275166 z"
             style="font-style:normal;font-variant:normal;font-weight:500;font-stretch:normal;font-size:10.5833px;line-height:1.25;font-family:Lato;-inkscape-font-specification:'Lato Medium';white-space:pre;shape-inside:url(#rect835);fill:#ffffff;fill-opacity:1"
             id="path907" />
          <path
             d="m 57.343662,31.008484 v -5.376316 h 0.619123 q 0.216957,0 0.269874,0.206374 l 0.07408,0.51329 q 0.296332,-0.35454 0.656165,-0.576789 0.365123,-0.227541 0.851955,-0.227541 0.534457,0 0.867831,0.296332 0.333374,0.291041 0.486832,0.793748 0.116416,-0.28575 0.301624,-0.492124 0.185207,-0.206374 0.412748,-0.338665 0.227541,-0.132292 0.48154,-0.195792 0.259291,-0.0635 0.523874,-0.0635 0.428623,0 0.761997,0.137583 0.338666,0.132291 0.571499,0.391582 0.232832,0.25929 0.35454,0.640289 0.121708,0.380999 0.121708,0.867831 v 3.423697 h -1.037163 v -3.423697 q 0,-0.603248 -0.264583,-0.910164 -0.259291,-0.306916 -0.761997,-0.306916 -0.22225,0 -0.423332,0.07938 -0.201083,0.07408 -0.354541,0.227541 -0.148166,0.153458 -0.238124,0.380999 -0.08467,0.227541 -0.08467,0.529165 v 3.423697 h -1.037163 v -3.423697 q 0,-0.624415 -0.248707,-0.920747 -0.248708,-0.296333 -0.730248,-0.296333 -0.333374,0 -0.619123,0.174625 -0.285749,0.174624 -0.523874,0.476248 v 3.989904 z"
             style="font-style:normal;font-variant:normal;font-weight:500;font-stretch:normal;font-size:10.5833px;line-height:1.25;font-family:Lato;-inkscape-font-specification:'Lato Medium';white-space:pre;shape-inside:url(#rect835);fill:#ffffff;fill-opacity:1"
             id="path909" />
        </g>
      </g>
    </g>
    <path
       id="path796"
       style="fill:#ffffff;fill-opacity:1;stroke-width:0.0189666"
       d="m 19.052064,15.86719 c -0.0036,0.01354 -0.0017,0.0068 0,0 z M 27.967438,1.5172696e-4 c 0.02964,-7.8000011e-4 0.07186,0.001499993 0.136512,0.005627993 0.208297,0.01331881 0.383842,0.03481441 0.72211,0.08847722 0.318147,0.05047081 0.446255,0.07969081 0.83258,0.18983484 0.49912,0.1423044 0.805076,0.26281656 1.306499,0.5145065 1.145017,0.57473892 2.123627,1.46306052 2.813896,2.55430742 0.533391,0.8432418 0.8504,1.6773644 1.036767,2.7281298 0.03575,0.2015671 0.1092,0.9688092 0.1092,1.1406958 0,0.1050622 -0.05603,0.7587662 -0.08067,0.9410538 -0.02116,0.1566474 -0.05006,0.3273296 -0.07564,0.4467403 -0.01004,0.047052 -0.01873,0.092004 -0.01918,0.099852 -5.14e-4,0.0078 -0.01787,0.031368 -0.03868,0.052272 -0.0371,0.037284 -0.06016,0.037932 -1.177902,0.033768 -1.855836,-0.00696 -2.415436,-0.019068 -2.43664,-0.052788 -0.0108,-0.017232 -0.01797,-0.5447993 -0.0182,-1.3325607 -2.44e-4,-1.2394415 0.0014,-1.305674 0.0343,-1.3355772 0.02917,-0.02652 0.08224,-0.031448 0.337698,-0.031448 0.275279,0 0.306087,-0.00337 0.336082,-0.036668 0.02278,-0.025275 0.02871,-0.0504 0.01922,-0.080822 C 31.7916,5.8812815 30.477198,3.3371702 30.296317,3.0046292 30.179569,2.7899997 30.149886,2.7682681 30.07879,2.8453698 c -0.06049,0.065595 -1.550303,3.0147986 -1.568088,3.1041447 -0.02041,0.1025182 0.01282,0.1124988 0.374366,0.1124988 0.262687,0 0.321814,0.00509 0.346474,0.02988 0.02644,0.026572 0.02975,0.1725391 0.02975,1.319972 0,1.1474318 -0.0034,1.2933398 -0.02975,1.3199126 -0.02584,0.025968 -0.112476,0.02988 -0.662286,0.02988 -0.607313,0 -0.634037,-0.00156 -0.67037,-0.038004 -0.0373,-0.037512 -0.03788,-0.063408 -0.03788,-1.9344416 -5e-6,-1.0430095 -0.0057,-2.9793041 -0.01259,-4.3029151 l -0.01252,-2.40659424 0.04261,-0.0428172 c 0.0251,-0.025224 0.03952,-0.03534961 0.08893,-0.0367260089 z M 25.92826,0.20837862 c 0.04537,-0.002112 0.06482,0.01056 0.08495,0.0328968 0.02894,0.03213 0.0313,0.35343805 0.0313,4.23660318 0,4.025652 -0.0014,4.2030912 -0.03412,4.2328308 -0.03081,0.028008 -0.102818,0.029904 -0.739032,0.018912 -0.656437,-0.01128 -0.706627,-0.014616 -0.729443,-0.04734 -0.01863,-0.026736 -0.02229,-0.111636 -0.01532,-0.3546662 0.01036,-0.359953 -0.001,-0.4117015 -0.08744,-0.3987595 -0.04011,0.006 -1.739402,1.0900978 -2.636788,1.6821792 -0.195595,0.1290526 -0.231545,0.177852 -0.173471,0.2356126 0.04339,0.043126 2.677913,1.5151155 2.736518,1.5289535 0.07967,0.01882 0.09826,-0.01508 0.111505,-0.203586 0.0069,-0.0971 0.01317,-0.267444 0.01415,-0.37857 0.0014,-0.16085 0.0081,-0.207244 0.03224,-0.22743 0.0244,-0.02035 0.171109,-0.02438 0.742669,-0.02036 0.854072,0.006 0.778529,-0.02215 0.778529,0.290322 0,0.291878 0.01202,0.283071 -0.386548,0.283071 -0.263179,0 -0.315642,0.0049 -0.341973,0.03128 -0.02055,0.02065 -0.02712,0.04725 -0.01934,0.07838 0.02092,0.08376 1.626644,3.146389 1.660886,3.167852 0.02349,0.01475 0.04269,0.01491 0.06616,5.16e-4 0.04476,-0.02732 1.609956,-3.140816 1.611744,-3.206084 9e-4,-0.0326 -0.01211,-0.05888 -0.03524,-0.0713 -0.02101,-0.01128 -0.170166,-0.01967 -0.350056,-0.01967 -0.399742,0 -0.389148,0.0074 -0.389148,-0.272743 0,-0.16803 0.0052,-0.201371 0.03546,-0.228882 0.03206,-0.02915 0.09542,-0.03166 0.669737,-0.02668 0.59295,0.0052 0.636973,0.0078 0.67418,0.04171 l 0.0398,0.0362 v 1.847704 c 0,2.125782 0.0251,1.895328 -0.211003,1.938732 -0.810072,0.148918 -1.037728,0.169494 -1.719036,0.155434 -0.296602,-0.0061 -0.603173,-0.01914 -0.681226,-0.02894 -0.184348,-0.02317 -0.403723,-0.0564 -0.510877,-0.0774 -0.04683,-0.0092 -0.14047,-0.02605 -0.208115,-0.03747 -0.463789,-0.07837 -1.236992,-0.353275 -1.781863,-0.633501 -0.183871,-0.09456 -0.346704,-0.16713 -0.361836,-0.161292 -0.01513,0.0058 -0.0811,0.101029 -0.146616,0.211536 -0.13907,0.234568 -0.256368,0.373021 -0.400063,0.472211 -0.19609,0.135353 -0.391895,0.195414 -0.914289,0.28046 -0.265765,0.04327 -0.604997,0.127231 -0.766346,0.189717 -0.1302,0.05042 -0.180367,0.0588 -0.204881,0.03418 -0.03922,-0.03938 -0.02426,-0.0952 0.09302,-0.347471 0.388817,-0.836248 0.528238,-1.410943 0.528143,-2.177305 -3e-5,-0.250665 0.004,-0.24087 -0.188019,-0.446276 -0.4448,-0.475502 -0.921202,-1.340503 -1.224958,-2.2243104 -0.07492,-0.2180317 -0.184552,-0.6369014 -0.211465,-0.8080178 -0.01069,-0.067968 -0.03178,-0.1962841 -0.0469,-0.2851597 -0.04226,-0.2483919 -0.06791,-0.4752131 -0.0913,-0.8079618 -0.02711,-0.38581 -0.02733,-0.3666438 0.0096,-0.8174764 0.02989,-0.3649584 0.04616,-0.5039837 0.08564,-0.7319575 0.01004,-0.05751 0.02716,-0.1644466 0.03828,-0.2376421 0.06044,-0.3980795 0.316943,-1.1792254 0.550837,-1.677418 0.194226,-0.4137115 0.448247,-0.8410097 0.736427,-1.2388622 0.901919,-1.2451543 2.236441,-2.20799457 3.708548,-2.67573836 0.343111,-0.10901762 0.490755,-0.15354287 0.566374,-0.15705551 z M 31.501368,10.59949 c 0.09181,-5.17e-4 0.20473,-3.89e-4 0.343298,3.88e-4 0.184758,7.5e-4 0.415161,0.0025 0.702074,0.0049 1.491808,0.01258 1.445089,0.009 1.445089,0.112032 0,0.103488 -0.421329,0.747222 -0.773506,1.181829 -0.209143,0.258094 -0.73243,0.783659 -0.986298,0.990604 -0.330548,0.269448 -0.854441,0.634313 -0.997501,0.694709 -0.03347,0.01412 -0.06324,0.02497 -0.06616,0.02419 -0.03497,-0.0098 -0.06471,-0.02703 -0.07606,-0.04408 -0.0076,-0.01152 -0.01403,-0.673071 -0.01415,-1.47012 l -3.35e-4,-1.449179 0.04257,-0.02581 c 0.01987,-0.01204 0.105557,-0.01807 0.381006,-0.01933 z" />
  </g>
</svg>
