<?xml version="1.0" encoding="UTF-8" standalone="no"?>
<svg
   xmlns:dc="http://purl.org/dc/elements/1.1/"
   xmlns:cc="http://creativecommons.org/ns#"
   xmlns:rdf="http://www.w3.org/1999/02/22-rdf-syntax-ns#"
   xmlns:svg="http://www.w3.org/2000/svg"
   xmlns="http://www.w3.org/2000/svg"
   xmlns:xlink="http://www.w3.org/1999/xlink"
   xmlns:sodipodi="http://sodipodi.sourceforge.net/DTD/sodipodi-0.dtd"
   xmlns:inkscape="http://www.inkscape.org/namespaces/inkscape"
   sodipodi:docname="synod-im-text-clean.svg"
   inkscape:version="1.0 (4035a4f, 2020-05-01)"
   id="svg8"
   version="1.1"
   viewBox="0 0 52.916665 11.641667"
   height="44"
   width="200">
  <defs
     id="defs2">
    <rect
       id="rect835"
       height="12.33056"
       width="45.047223"
       y="21.166668"
       x="22.678572" />
    <clipPath
       id="clipPath891"
       clipPathUnits="userSpaceOnUse">
      <use
         id="use893"
         xlink:href="#g887"
         y="0"
         x="0" />
    </clipPath>
  </defs>
  <sodipodi:namedview
     inkscape:window-maximized="0"
     inkscape:window-y="23"
     inkscape:window-x="0"
     inkscape:window-height="1035"
     inkscape:window-width="1248"
     units="px"
     showgrid="false"
     inkscape:document-rotation="0"
     inkscape:current-layer="layer1"
     inkscape:document-units="px"
     inkscape:cy="232.38337"
     inkscape:cx="211.16989"
     inkscape:zoom="1.0074671"
     inkscape:pageshadow="2"
     inkscape:pageopacity="0.0"
     borderopacity="1.0"
     bordercolor="#666666"
     pagecolor="#ffffff"
     id="base" />
  <metadata
     id="metadata5">
    <rdf:RDF>
      <cc:Work
         rdf:about="">
        <dc:format>image/svg+xml</dc:format>
        <dc:type
           rdf:resource="http://purl.org/dc/dcmitype/StillImage" />
        <dc:title></dc:title>
      </cc:Work>
    </rdf:RDF>
  </metadata>
  <g
     id="layer1"
     inkscape:groupmode="layer"
     inkscape:label="Ebene 1">
    <g
       clip-path="url(#clipPath891)"
       id="g889">
      <g
         id="g887"
         inkscape:label="Clip">
        <g
           style="font-style:normal;font-variant:normal;font-weight:500;font-stretch:normal;font-size:10.5833px;line-height:1.25;font-family:Lato;-inkscape-font-specification:'Lato Medium';white-space:pre;shape-inside:url(#rect835);fill:#ffffff;fill-opacity:1"
           id="text833"
           transform="translate(-16.807828,-21.797652)"
           aria-label="Synod.im">
          <path
             id="path895"
             style="font-style:normal;font-variant:normal;font-weight:500;font-stretch:normal;font-size:10.5833px;line-height:1.25;font-family:Lato;-inkscape-font-specification:'Lato Medium';white-space:pre;shape-inside:url(#rect835);fill:#ffffff;fill-opacity:1"
             d="m 27.546052,24.647921 q -0.05292,0.08996 -0.111124,0.132291 -0.05821,0.04233 -0.148167,0.04233 -0.09525,0 -0.216957,-0.08467 -0.121708,-0.08996 -0.306916,-0.195791 -0.179916,-0.111124 -0.433915,-0.195791 -0.253999,-0.08996 -0.60854,-0.08996 -0.333374,0 -0.587373,0.08996 -0.248708,0.08467 -0.41804,0.238124 -0.169333,0.148167 -0.259291,0.354541 -0.08467,0.201083 -0.08467,0.439207 0,0.306916 0.153458,0.507998 0.15875,0.201083 0.412749,0.343958 0.253999,0.142874 0.57679,0.248707 0.32279,0.105833 0.661456,0.222249 0.338665,0.111125 0.661456,0.259291 0.322791,0.148166 0.57679,0.375707 0.253999,0.22225 0.407457,0.550332 0.158749,0.322791 0.158749,0.793747 0,0.502707 -0.174624,0.941914 -0.169333,0.439207 -0.497415,0.767289 -0.328082,0.328083 -0.809622,0.518582 -0.476249,0.185208 -1.084789,0.185208 -0.365124,0 -0.709081,-0.07408 -0.343957,-0.06879 -0.650873,-0.195791 -0.306915,-0.132292 -0.57679,-0.312208 -0.264582,-0.185208 -0.476248,-0.412748 l 0.322791,-0.539749 q 0.04763,-0.0635 0.111124,-0.105833 0.06879,-0.04233 0.153458,-0.04233 0.111125,0 0.253999,0.116416 0.148167,0.116417 0.359833,0.259291 0.216957,0.137583 0.51329,0.253999 0.301624,0.116417 0.730247,0.116417 0.349249,0 0.624415,-0.08996 0.275166,-0.09525 0.460373,-0.264583 0.1905,-0.174624 0.291041,-0.41804 0.100542,-0.243416 0.100542,-0.539748 0,-0.333374 -0.153458,-0.54504 -0.153458,-0.211666 -0.407457,-0.354541 -0.254,-0.142875 -0.57679,-0.243416 -0.322791,-0.100541 -0.661456,-0.206374 -0.338666,-0.111125 -0.661457,-0.253999 -0.32279,-0.142875 -0.576789,-0.370416 -0.254,-0.232832 -0.407458,-0.57679 -0.153457,-0.349249 -0.153457,-0.857247 0,-0.407457 0.158749,-0.788456 0.15875,-0.380999 0.460374,-0.672039 0.306915,-0.296333 0.751414,-0.470957 0.444499,-0.179916 1.015997,-0.179916 0.640289,0 1.174746,0.206374 0.539748,0.201083 0.936622,0.582082 z" />
          <path
             id="path897"
             style="font-style:normal;font-variant:normal;font-weight:500;font-stretch:normal;font-size:10.5833px;line-height:1.25;font-family:Lato;-inkscape-font-specification:'Lato Medium';white-space:pre;shape-inside:url(#rect835);fill:#ffffff;fill-opacity:1"
             d="m 33.60003,25.632168 -2.98449,6.937353 q -0.04763,0.116416 -0.127,0.179916 -0.07937,0.0635 -0.232832,0.0635 h -0.76729 l 0.984247,-2.143118 -2.206618,-5.037651 h 0.899581 q 0.132291,0 0.206374,0.0635 0.07408,0.0635 0.105833,0.142874 l 1.365246,3.227907 q 0.04233,0.121708 0.07937,0.248707 0.04233,0.121708 0.06879,0.243416 0.03704,-0.126999 0.07937,-0.248707 0.04233,-0.127 0.08996,-0.248708 l 1.317621,-3.222615 q 0.03704,-0.08996 0.116416,-0.148166 0.07937,-0.05821 0.179916,-0.05821 z" />
          <path
             id="path899"
             style="font-style:normal;font-variant:normal;font-weight:500;font-stretch:normal;font-size:10.5833px;line-height:1.25;font-family:Lato;-inkscape-font-specification:'Lato Medium';white-space:pre;shape-inside:url(#rect835);fill:#ffffff;fill-opacity:1"
             d="m 35.347102,26.378291 q 0.174625,-0.185208 0.365124,-0.338666 0.190499,-0.153458 0.402165,-0.259291 0.216958,-0.111124 0.460374,-0.169333 0.248708,-0.0635 0.529165,-0.0635 0.444499,0 0.777872,0.148166 0.338666,0.148166 0.566207,0.41804 0.227541,0.264583 0.343957,0.64029 0.116417,0.375707 0.116417,0.830789 v 3.423697 h -1.037164 v -3.423697 q 0,-0.57679 -0.264582,-0.894289 -0.264583,-0.322791 -0.809623,-0.322791 -0.396873,0 -0.746122,0.1905 -0.343958,0.185208 -0.64029,0.507998 v 3.942279 H 34.37873 v -5.376316 h 0.619123 q 0.216958,0 0.269874,0.206374 z" />
          <path
             id="path901"
             style="font-style:normal;font-variant:normal;font-weight:500;font-stretch:normal;font-size:10.5833px;line-height:1.25;font-family:Lato;-inkscape-font-specification:'Lato Medium';white-space:pre;shape-inside:url(#rect835);fill:#ffffff;fill-opacity:1"
             d="m 42.581779,25.547502 q 0.592665,0 1.068913,0.195791 0.48154,0.190499 0.814914,0.555623 0.338666,0.359832 0.518582,0.873122 0.179916,0.507999 0.179916,1.142997 0,0.634998 -0.179916,1.148288 -0.179916,0.51329 -0.518582,0.873122 -0.333374,0.359832 -0.814914,0.555623 -0.476248,0.190499 -1.068913,0.190499 -0.597957,0 -1.079497,-0.190499 -0.476248,-0.195791 -0.814914,-0.555623 -0.338665,-0.359832 -0.523873,-0.873122 -0.179916,-0.51329 -0.179916,-1.148288 0,-0.634998 0.179916,-1.142997 0.185208,-0.51329 0.523873,-0.873122 0.338666,-0.365124 0.814914,-0.555623 0.48154,-0.195791 1.079497,-0.195791 z m 0,4.730735 q 0.761997,0 1.137705,-0.51329 0.375707,-0.51329 0.375707,-1.444621 0,-0.93133 -0.375707,-1.44462 -0.375708,-0.518582 -1.137705,-0.518582 -0.772581,0 -1.15358,0.518582 -0.375707,0.51329 -0.375707,1.44462 0,0.931331 0.375707,1.444621 0.380999,0.51329 1.15358,0.51329 z" />
          <path
             id="path903"
             style="font-style:normal;font-variant:normal;font-weight:500;font-stretch:normal;font-size:10.5833px;line-height:1.25;font-family:Lato;-inkscape-font-specification:'Lato Medium';white-space:pre;shape-inside:url(#rect835);fill:#ffffff;fill-opacity:1"
             d="m 49.771643,26.933914 q -0.253999,-0.333374 -0.550332,-0.465665 -0.291041,-0.132292 -0.656164,-0.132292 -0.709082,0 -1.100664,0.513291 -0.38629,0.507998 -0.38629,1.486953 0,0.51329 0.08467,0.878414 0.08996,0.359832 0.254,0.592665 0.169332,0.227541 0.412748,0.338665 0.243416,0.105833 0.550332,0.105833 0.44979,0 0.777872,-0.201082 0.328083,-0.201083 0.613832,-0.566207 z m 1.037163,-3.735905 v 7.810475 h -0.624415 q -0.216957,0 -0.269874,-0.206374 l -0.08996,-0.619123 q -0.343957,0.407457 -0.783164,0.656164 -0.433915,0.243416 -1.005413,0.243416 -0.460374,0 -0.836081,-0.179916 -0.370416,-0.179916 -0.634998,-0.523873 -0.264583,-0.349249 -0.407457,-0.862539 -0.142875,-0.51329 -0.142875,-1.180038 0,-0.597956 0.15875,-1.111246 0.158749,-0.51329 0.460373,-0.888998 0.301624,-0.375707 0.730248,-0.587373 0.428624,-0.216957 0.968372,-0.216957 0.486832,0 0.825497,0.158749 0.343958,0.15875 0.613832,0.44979 v -2.942157 z" />
          <path
             id="path905"
             style="font-style:normal;font-variant:normal;font-weight:500;font-stretch:normal;font-size:10.5833px;line-height:1.25;font-family:Lato;-inkscape-font-specification:'Lato Medium';white-space:pre;shape-inside:url(#rect835);fill:#ffffff;fill-opacity:1"
             d="m 52.089385,30.389361 q 0,-0.142874 0.05292,-0.269874 0.05292,-0.126999 0.142874,-0.222249 0.09525,-0.09525 0.22225,-0.148166 0.126999,-0.05821 0.275165,-0.05821 0.142875,0 0.269874,0.05821 0.127,0.05292 0.22225,0.148166 0.09525,0.09525 0.148166,0.222249 0.05821,0.127 0.05821,0.269874 0,0.148166 -0.05821,0.275166 -0.05292,0.127 -0.148166,0.222249 -0.09525,0.09525 -0.22225,0.148167 -0.126999,0.05292 -0.269874,0.05292 -0.148166,0 -0.275165,-0.05292 -0.127,-0.05292 -0.22225,-0.148167 -0.08996,-0.09525 -0.142874,-0.222249 -0.05292,-0.127 -0.05292,-0.275166 z" />
          <path
             id="path907"
             style="font-style:normal;font-variant:normal;font-weight:500;font-stretch:normal;font-size:10.5833px;line-height:1.25;font-family:Lato;-inkscape-font-specification:'Lato Medium';white-space:pre;shape-inside:url(#rect835);fill:#ffffff;fill-opacity:1"
             d="m 55.839346,25.632168 v 5.376316 h -1.031872 v -5.376316 z m 0.195791,-1.661578 q 0,0.142875 -0.05821,0.275166 -0.05821,0.126999 -0.15875,0.227541 -0.09525,0.09525 -0.227541,0.153458 -0.132291,0.05292 -0.275166,0.05292 -0.142874,0 -0.269874,-0.05292 -0.126999,-0.05821 -0.227541,-0.153458 -0.09525,-0.100542 -0.153458,-0.227541 -0.05292,-0.132291 -0.05292,-0.275166 0,-0.148166 0.05292,-0.275166 0.05821,-0.132291 0.153458,-0.227541 0.100542,-0.100541 0.227541,-0.153458 0.127,-0.05821 0.269874,-0.05821 0.142875,0 0.275166,0.05821 0.132291,0.05292 0.227541,0.153458 0.100541,0.09525 0.15875,0.227541 0.05821,0.127 0.05821,0.275166 z" />
          <path
             id="path909"
             style="font-style:normal;font-variant:normal;font-weight:500;font-stretch:normal;font-size:10.5833px;line-height:1.25;font-family:Lato;-inkscape-font-specification:'Lato Medium';white-space:pre;shape-inside:url(#rect835);fill:#ffffff;fill-opacity:1"
             d="m 57.343662,31.008484 v -5.376316 h 0.619123 q 0.216957,0 0.269874,0.206374 l 0.07408,0.51329 q 0.296332,-0.35454 0.656165,-0.576789 0.365123,-0.227541 0.851955,-0.227541 0.534457,0 0.867831,0.296332 0.333374,0.291041 0.486832,0.793748 0.116416,-0.28575 0.301624,-0.492124 0.185207,-0.206374 0.412748,-0.338665 0.227541,-0.132292 0.48154,-0.195792 0.259291,-0.0635 0.523874,-0.0635 0.428623,0 0.761997,0.137583 0.338666,0.132291 0.571499,0.391582 0.232832,0.25929 0.35454,0.640289 0.121708,0.380999 0.121708,0.867831 v 3.423697 h -1.037163 v -3.423697 q 0,-0.603248 -0.264583,-0.910164 -0.259291,-0.306916 -0.761997,-0.306916 -0.22225,0 -0.423332,0.07938 -0.201083,0.07408 -0.354541,0.227541 -0.148166,0.153458 -0.238124,0.380999 -0.08467,0.227541 -0.08467,0.529165 v 3.423697 h -1.037163 v -3.423697 q 0,-0.624415 -0.248707,-0.920747 -0.248708,-0.296333 -0.730248,-0.296333 -0.333374,0 -0.619123,0.174625 -0.285749,0.174624 -0.523874,0.476248 v 3.989904 z" />
        </g>
      </g>
    </g>
  </g>
</svg>
