<?xml version="1.0" encoding="UTF-8" standalone="no"?>
<!-- Created with Inkscape (http://www.inkscape.org/) -->

<svg
   xmlns:dc="http://purl.org/dc/elements/1.1/"
   xmlns:cc="http://creativecommons.org/ns#"
   xmlns:rdf="http://www.w3.org/1999/02/22-rdf-syntax-ns#"
   xmlns:svg="http://www.w3.org/2000/svg"
   xmlns="http://www.w3.org/2000/svg"
   xmlns:sodipodi="http://sodipodi.sourceforge.net/DTD/sodipodi-0.dtd"
   xmlns:inkscape="http://www.inkscape.org/namespaces/inkscape"
   version="1.1"
   id="svg8"
   inkscape:version="0.92.3 (2405546, 2018-03-11)"
   sodipodi:docname="synodim-logo-2c.svg">
  <defs
     id="defs2" />
  <sodipodi:namedview
     id="base"
     pagecolor="#ffffff"
     bordercolor="#666666"
     borderopacity="1.0"
     inkscape:pageopacity="0.0"
     inkscape:pageshadow="2"
     inkscape:zoom="0.7"
     inkscape:cx="132.85715"
     inkscape:cy="358.37553"
     inkscape:document-units="mm"
     inkscape:current-layer="layer1"
     showgrid="false"
     inkscape:window-width="1280"
     inkscape:window-height="751"
     inkscape:window-x="0"
     inkscape:window-y="25"
     inkscape:window-maximized="1"
     fit-margin-top="0"
     fit-margin-left="0"
     fit-margin-right="0"
     fit-margin-bottom="0" />
  <metadata
     id="metadata5">
    <rdf:RDF>
      <cc:Work
         rdf:about="">
        <dc:format>image/svg+xml</dc:format>
        <dc:type
           rdf:resource="http://purl.org/dc/dcmitype/StillImage" />
        <dc:title></dc:title>
      </cc:Work>
    </rdf:RDF>
  </metadata>
  <g
     inkscape:label="Ebene 1"
     inkscape:groupmode="layer"
     id="layer1"
     transform="translate(0,-144.71523)">
    <path
       style="fill:#32b4b6;fill-opacity:1;stroke-width:0.16933332"
       d="m 0.05424104,144.71523 -0.04341,75.94576 c -0.02382,41.7703 -0.007,76.04164 0.03721,76.15814 0.06422,0.16923 15.38471096,0.20298 76.15865696,0.16899 l 76.078562,-0.0424 V 220.83049 144.71523 H 76.169488 Z M 79.831286,155.49235 c 0.26521,-0.007 0.64304,0.0133 1.22163,0.0501 1.86404,0.11863 3.43499,0.3101 6.46213,0.78807 2.84708,0.44954 3.99351,0.7098 7.45071,1.69085 4.4666,1.26749 7.204594,2.34089 11.691794,4.58267 10.2467,5.11917 19.00424,13.0314 25.18141,22.75107 4.77331,7.5107 7.61019,14.94019 9.27799,24.29929 0.31994,1.79535 0.9772,8.62913 0.9772,10.1601 0,0.93579 -0.50149,6.7583 -0.72192,8.38192 -0.18944,1.39525 -0.44806,2.9155 -0.67696,3.97909 -0.0902,0.4191 -0.16756,0.81945 -0.17157,0.88935 -0.004,0.0699 -0.15996,0.27934 -0.34623,0.4656 -0.33203,0.33208 -0.5384,0.33786 -10.54096,0.30076 -16.6078,-0.0617 -21.61563,-0.1698 -21.80538,-0.47026 -0.0969,-0.15344 -0.16078,-4.85249 -0.16278,-11.86904 -0.002,-11.03963 0.0126,-11.62956 0.30695,-11.89591 0.26102,-0.23624 0.73604,-0.28009 3.02204,-0.28009 2.46344,0 2.73915,-0.03 3.00757,-0.32659 0.20371,-0.22509 0.25698,-0.44887 0.17208,-0.71986 -0.12345,-0.39433 -11.88592,-23.05458 -13.5046,-26.0165 -1.044754,-1.9117 -1.310414,-2.10525 -1.946654,-1.41852 -0.54129,0.58426 -13.87357,26.85264 -14.03273,27.64844 -0.18262,0.91312 0.11472,1.00201 3.35018,1.00201 2.35077,0 2.87989,0.0454 3.10058,0.26613 0.2367,0.23667 0.26614,1.5368 0.26614,11.75691 0,10.22011 -0.0294,11.51971 -0.26614,11.75639 -0.23129,0.23129 -1.00658,0.26613 -5.92676,0.26613 -5.43481,0 -5.67396,-0.0133 -5.99912,-0.33848 -0.33374,-0.33414 -0.33893,-0.56479 -0.339,-17.22996 -4e-5,-9.29004 -0.0509,-26.53649 -0.11265,-38.32582 l -0.11214,-21.43539 0.38137,-0.38137 c 0.22466,-0.22467 0.3538,-0.31486 0.79582,-0.32712 z m -18.2485,1.85467 c 0.40599,-0.0188 0.58014,0.0941 0.76016,0.29301 0.25899,0.28618 0.28009,3.14804 0.28009,37.73516 0,35.85625 -0.0127,37.43669 -0.30541,37.70158 -0.27574,0.24952 -0.92004,0.26636 -6.61355,0.16846 -5.874442,-0.10101 -6.323583,-0.13015 -6.52777,-0.42167 -0.16678,-0.23812 -0.199432,-0.99436 -0.136943,-3.15899 0.09256,-3.20608 -0.0091,-3.667 -0.782381,-3.55172 -0.358963,0.0535 -15.565821,9.70943 -23.596492,14.98307 -1.750369,1.14945 -2.072069,1.5841 -1.55236,2.09858 0.38815,0.38425 23.964501,13.49504 24.488944,13.61829 0.713002,0.16756 0.879256,-0.1343 0.997871,-1.81333 0.0611,-0.86488 0.117809,-2.3821 0.126609,-3.37188 0.01266,-1.43269 0.0717,-1.84591 0.288353,-2.02572 0.218377,-0.18124 1.531231,-0.21718 6.646109,-0.18138 7.64305,0.0535 6.96702,-0.19731 6.96702,2.58588 0,2.59975 0.10764,2.5213 -3.45922,2.5213 -2.35516,0 -2.82464,0.0429 -3.06028,0.27853 -0.18389,0.18388 -0.24273,0.42081 -0.17312,0.69815 0.18724,0.74603 14.55675,28.02468 14.86318,28.21585 0.21021,0.13128 0.38197,0.13287 0.59221,0.005 0.40054,-0.2433 14.40741,-27.97507 14.42341,-28.5564 0.008,-0.29028 -0.10841,-0.52441 -0.31523,-0.6351 -0.18796,-0.10059 -1.5228,-0.17518 -3.13262,-0.17518 -3.57727,0 -3.48248,0.0659 -3.48248,-2.42931 0,-1.49664 0.0465,-1.7936 0.31729,-2.03864 0.28693,-0.25962 0.85395,-0.28201 5.99344,-0.23771 5.30629,0.0457 5.70026,0.07 6.03322,0.37155 l 0.35605,0.32247 v 16.45739 c 0,18.93422 0.22463,16.88159 -1.88826,17.26819 -7.24929,1.32639 -9.28656,1.50967 -15.38355,1.38442 -2.6543,-0.0545 -5.39777,-0.17047 -6.09627,-0.25787 -1.64973,-0.20634 -3.61289,-0.50239 -4.57182,-0.68936 -0.4191,-0.0817 -1.25705,-0.232 -1.86241,-0.33383 -4.15042,-0.69811 -11.069777,-3.14661 -15.945802,-5.64255 -1.645441,-0.84227 -3.102633,-1.48861 -3.238045,-1.43661 -0.135411,0.052 -0.725752,0.89986 -1.312066,1.88412 -1.244536,2.08927 -2.29422,3.32248 -3.580143,4.20595 -1.754788,1.20559 -3.507052,1.74055 -8.181927,2.49804 -2.378305,0.38537 -5.414084,1.13326 -6.857981,1.68982 -1.165171,0.44913 -1.614111,0.52374 -1.833479,0.30437 -0.350841,-0.35084 -0.217187,-0.84786 0.832507,-3.0949 3.479492,-7.44841 4.727173,-12.56719 4.726326,-19.39313 -2.78e-4,-2.23267 0.03692,-2.14543 -1.682584,-3.97495 -3.980532,-4.23519 -8.243829,-11.93969 -10.962122,-19.81171 -0.670594,-1.942 -1.651546,-5.67285 -1.892391,-7.19698 -0.09566,-0.60537 -0.28428,-1.74827 -0.419612,-2.5399 -0.378212,-2.2124 -0.60773,-4.23269 -0.817005,-7.19646 -0.242641,-3.43639 -0.244574,-3.26567 0.08578,-7.28121 0.267432,-3.25067 0.412975,-4.48896 0.766362,-6.5195 0.08915,-0.51222 0.243175,-1.46473 0.342614,-2.11666 0.54082,-3.54571 2.836313,-10.50332 4.929415,-14.9407 1.738169,-3.68491 4.011377,-7.49082 6.590295,-11.03447 8.071236,-11.09052 20.013803,-19.66648 33.187638,-23.83265 3.07046,-0.97101 4.39173,-1.3676 5.06843,-1.39888 z m 49.873444,92.55301 c 0.82166,-0.004 1.83212,-0.003 3.07216,0.003 1.65339,0.007 3.71526,0.0219 6.28282,0.0434 13.35013,0.11195 12.93203,0.0796 12.93203,0.99787 0,0.92179 -3.77043,6.65547 -6.92206,10.52649 -1.87161,2.29882 -6.55447,6.98 -8.82633,8.82323 -2.95805,2.39997 -7.64634,5.64981 -8.92659,6.18774 -0.29948,0.12577 -0.56592,0.22248 -0.59221,0.21549 -0.31298,-0.0876 -0.57916,-0.24087 -0.68058,-0.39274 -0.0684,-0.10245 -0.12561,-5.99502 -0.12661,-13.09429 l -0.003,-12.90774 0.38086,-0.22996 c 0.17774,-0.10729 0.94463,-0.16094 3.40961,-0.17209 z"
       id="path796"
       inkscape:connector-curvature="0" />
  </g>
</svg>
